<?xml version="1.0" encoding="utf-8"?>
<!-- Generator: Adobe Illustrator 15.1.0, SVG Export Plug-In . SVG Version: 6.00 Build 0)  -->
<!DOCTYPE svg PUBLIC "-//W3C//DTD SVG 1.1//EN" "http://www.w3.org/Graphics/SVG/1.1/DTD/svg11.dtd">
<svg version="1.1" id="Layer_1" xmlns="http://www.w3.org/2000/svg" xmlns:xlink="http://www.w3.org/1999/xlink" x="0px" y="0px"
	 width="595.279px" height="841.891px" viewBox="0 0 595.279 841.891" enable-background="new 0 0 595.279 841.891"
	 xml:space="preserve">
<path fill="#CBCBCB" d="M297.64,123.305C133.938,123.305,0,257.243,0,420.945s133.938,297.64,297.64,297.64
	s297.64-133.938,297.64-297.64S461.342,123.305,297.64,123.305z M376.515,419.457h-52.087c0,81.851,0,184.537,0,184.537H248.53
	c0,0,0-99.71,0-184.537h-35.717v-65.481h35.717v-41.669c0-29.764,14.882-77.387,77.386-77.387h56.552v62.504c0,0-34.229,0-41.669,0
	c-5.953,0-16.371,2.977-16.371,17.858v38.693h58.04L376.515,419.457z"/>
</svg>
