<?xml version="1.0" encoding="utf-8"?>
<!-- Generator: Adobe Illustrator 19.2.1, SVG Export Plug-In . SVG Version: 6.00 Build 0)  -->
<svg version="1.1" id="Layer_1" xmlns="http://www.w3.org/2000/svg" xmlns:xlink="http://www.w3.org/1999/xlink" x="0px" y="0px"
	 viewBox="0 0 297.6 595.3" style="enable-background:new 0 0 297.6 595.3;" xml:space="preserve">
<style type="text/css">
	.st0{fill:#3C9D46;}
</style>
<g id="XMLID_190_">
	<g>
		<g id="XMLID_51_">
			<g id="XMLID_52_">
				<g>
					<path class="st0" d="M61.4,227.7c-3.6,0-5.6,2-6.4,5.3c-2.4-3.9-7.4-5.9-11.7-5.9c-12.9,0-21.1,12-21.1,24.9
						c0,12.7,6.3,24.5,19.7,24.5c5.9,0,10.2-2.1,12.9-6H55v3c0,6.5-4.6,10.1-10.8,10.1c-7.4,0-11.9-4-16-4c-2.5,0-5.2,3.2-5.2,5.6
						c0,7,14.9,9.6,20.2,9.6c14.6,0,24.6-7.7,24.6-23.1v-37C67.8,230.5,65.2,227.7,61.4,227.7z M45,264.8c-6.7,0-10-6.2-10-13.1
						c0-6,3.3-12.9,10-12.9c7,0,10,7.1,10,13.3C55,258.4,51.8,264.8,45,264.8z M79.1,207c-3.7,0-6.4,2.8-6.4,7.1v54.8
						c0,4.3,2.7,7.1,6.4,7.1s6.4-2.8,6.4-7.1v-54.8C85.5,209.9,82.8,207,79.1,207z M111.5,227.1C98,227.1,88.5,239,88.5,252
						c0,13.3,9.2,24.6,22.9,24.6s22.9-11.3,22.9-24.6C134.4,239,125,227.1,111.5,227.1z M111.5,264.8c-6.9,0-10.1-6.8-10.1-12.9
						c0-6.1,3.1-13.1,10.1-13.1c7,0,10.1,6.9,10.1,13.1C121.6,258.1,118.4,264.8,111.5,264.8z M162.6,227.1c-4.4,0-8.8,1.5-12.2,4.4
						v-17.4c0-4.3-2.7-7.1-6.4-7.1c-3.7,0-6.4,2.8-6.4,7.1v54.8c0,4.3,2.7,7.1,6.4,7.1c3.6,0,5.6-2,6.4-5.3
						c2.4,3.9,7.4,5.9,11.7,5.9c12.9,0,21.1-12,21.1-24.1C183.2,240,176.4,227.1,162.6,227.1z M160.5,264.8c-7,0-10-7.1-10-13.3
						s3.2-12.6,10-12.6c6.7,0,10,7,10,13.1C170.4,257.9,167.1,264.8,160.5,264.8z M207.5,227.1c-13.5,0-22.9,11.8-22.9,24.8
						c0,13.3,9.2,24.6,22.9,24.6s22.9-11.3,22.9-24.6C230.5,239,221,227.1,207.5,227.1z M207.5,264.8c-6.9,0-10.1-6.8-10.1-12.9
						c0-6.1,3.1-13.1,10.1-13.1c7,0,10.1,6.9,10.1,13.1C217.6,258.1,214.4,264.8,207.5,264.8z"/>
				</g>
			</g>
		</g>
		<g id="XMLID_49_">
			<g id="XMLID_50_">
				<g>
					<path class="st0" d="M94.1,308.4c-2.4,0-5.5,3.3-10.7,3.3c-6.7,0-8.3-3.6-8.3-5.8h18.8c3.3,0,5.1-0.9,5.1-4.5
						c0-9.1-6.6-17.7-16.9-17.7c-10.7,0-18.2,8.8-18.2,18.8c0,10.5,7,18.8,18.2,18.8c7.9,0,16.3-3.3,16.3-8.4
						C98.4,310.2,96.4,308.4,94.1,308.4z M81.9,292.5c4.1,0,6.7,3.9,6.7,6.3H75.1C75.1,296.4,77.8,292.5,81.9,292.5z M109.8,295.1
						c0-1.5,1.3-2.2,2.7-2.2c3.2,0,6.3,2.6,8.3,2.6c2.5,0,4.3-1.8,4.3-4.4c0-5.4-7.8-7.4-12-7.4c-8.3,0-13.4,5.9-13.4,11.8
						c0,5.6,2.9,7.6,8.2,9.8c5.8,2.4,8.1,2.6,8.1,4.7c0,1.1-0.8,2.1-2.9,2.1c-4.5,0-6.7-3-10-3c-2.3,0-4.3,2.1-4.3,5
						c0,4.6,7.3,7.2,13.9,7.2c7.1,0,13.3-4.3,13.3-11.7C126.1,298.2,109.8,299.2,109.8,295.1z M146.2,283.7c-3.9,0-6.6,1.1-8.9,4
						c-0.7-1.6-2.3-3.3-4.9-3.3c-3.1,0-5.2,2.4-5.2,5.4v39.8c0,3,2.1,5.4,5.2,5.4c3.1,0,5.2-2.4,5.2-5.4v-11.3
						c1.9,1.5,4.1,2.9,8.6,2.9c9.1,0,16.1-8.3,16.1-18.8C162.3,292,155.3,283.7,146.2,283.7z M144.7,311.3c-4.6,0-7.1-4-7.1-8.8
						c0-4.8,2.5-8.8,7.1-8.8c4.6,0,7.1,4,7.1,8.8C151.9,307.3,149.3,311.3,144.7,311.3z M180.1,283.7c-10.5,0-17.5,8.3-17.5,18.8
						c0,10.5,7,18.8,17.5,18.8c10.5,0,17.5-8.3,17.5-18.8C197.6,292,190.6,283.7,180.1,283.7z M180.1,311.3c-4.6,0-7.1-4-7.1-8.8
						c0-4.8,2.5-8.8,7.1-8.8c4.6,0,7.1,4,7.1,8.8C187.2,307.3,184.7,311.3,180.1,311.3z M242.5,289.6c0-3.3-2.1-4.8-5.5-4.8h-2.9
						V278c0-3-2.1-5.4-5.2-5.4s-5.2,2.4-5.2,5.4v6.8h-1.2c-0.8,0-1.5,0.1-2.2,0.3c-1-0.8-2.2-1.3-3.5-1.3c-2.9,0-5.5,1.9-7.2,4
						c-0.7-1.5-2.4-3.3-5.2-3.3c-3.1,0-5.2,2.4-5.2,5.4v25.4c0,3,2.1,5.4,5.2,5.4c3.1,0,5.2-2.4,5.2-5.4v-12.7c0-5.3,1.5-6.5,6-7.9
						c1.3-0.4,2.4-0.7,3.4-1.2c0.9,0.5,2.1,0.8,3.5,0.8h1.2v20.9c0,3,2.1,5.4,5.2,5.4s5.2-2.4,5.2-5.4v-20.9h2.9
						C240.4,294.4,242.5,292.9,242.5,289.6z M270.5,308.4c-2.4,0-5.5,3.3-10.7,3.3c-6.7,0-8.3-3.6-8.3-5.8h18.8
						c3.3,0,5.1-0.9,5.1-4.5c0-9.1-6.6-17.7-16.9-17.7c-10.7,0-18.2,8.8-18.2,18.8c0,10.5,7,18.8,18.2,18.8c7.9,0,16.3-3.3,16.3-8.4
						C274.8,310.2,272.8,308.4,270.5,308.4z M258.2,292.5c4.1,0,6.7,3.9,6.7,6.3h-13.5C251.5,296.4,254.1,292.5,258.2,292.5z"/>
				</g>
			</g>
		</g>
		<g id="XMLID_47_">
			<g id="XMLID_48_">
				<g>
					<path class="st0" d="M32.5,373.1c-4.5,0-8.1,3.6-8.1,8.1c0,4.5,3.6,8.1,8.1,8.1c4.5,0,8.1-3.6,8.1-8.1
						C40.6,376.8,37,373.1,32.5,373.1z M81.4,372.5c-1.8,0-7.4,3.1-11.1,3.1c-8.1,0-12.5-7.7-12.5-15c0-7.7,4-15.2,12.5-15.2
						c4.8,0,8.1,2.9,11.8,2.9c3.5,0,5.7-4,5.7-7.1c0-7.3-12.3-9.4-18.2-9.4c-15.7,0-26.7,13.8-26.7,28.9c0,15.5,10.7,28.7,26.7,28.7
						c5.4,0,18.2-2.6,18.2-10.2C87.8,375.5,84.9,372.5,81.4,372.5z M112,331.7c-15.7,0-26.7,13.8-26.7,28.9
						c0,15.5,10.7,28.7,26.7,28.7c16.1,0,26.7-13.2,26.7-28.7C138.7,345.5,127.7,331.7,112,331.7z M112,375.6
						c-8.1,0-11.8-7.9-11.8-15c0-7.1,3.6-15.2,11.8-15.2s11.8,8.1,11.8,15.2C123.8,367.7,120,375.6,112,375.6z M198.7,331.7
						c-5.1,0-11.6,2.8-15.7,7.6c-3.9-5-9.2-7.6-15.4-7.6c-5.5,0-10.2,2.3-13.9,6.2c-0.5-3.5-3-5.6-6.8-5.6c-4.3,0-7.5,3.3-7.5,8.3
						v39.8c0,5,3.1,8.3,7.5,8.3s7.5-3.3,7.5-8.3v-26c0-6,2.7-10.2,8.8-10.2c5.4,0,8.7,4.2,8.7,10.2v26c0,5,3.1,8.3,7.5,8.3
						c4.3,0,7.5-3.3,7.5-8.3v-26c0-6,3.3-10.2,8.8-10.2c5.4,0,8.7,4.2,8.7,10.2v26c0,5,3.1,8.3,7.5,8.3c4.4,0,7.5-3.3,7.5-8.3v-28.6
						C219.1,338.7,210.8,331.7,198.7,331.7z"/>
				</g>
			</g>
		</g>
	</g>
</g>
</svg>
