<?xml version="1.0" encoding="utf-8"?>
<!-- Generator: Adobe Illustrator 15.1.0, SVG Export Plug-In . SVG Version: 6.00 Build 0)  -->
<!DOCTYPE svg PUBLIC "-//W3C//DTD SVG 1.1//EN" "http://www.w3.org/Graphics/SVG/1.1/DTD/svg11.dtd">
<svg version="1.1" id="Layer_1" xmlns="http://www.w3.org/2000/svg" xmlns:xlink="http://www.w3.org/1999/xlink" x="0px" y="0px"
	 width="595.279px" height="841.891px" viewBox="0 0 595.279 841.891" enable-background="new 0 0 595.279 841.891"
	 xml:space="preserve">
<path fill="#CBCBCB" d="M297.64,123.305C133.938,123.305,0,257.243,0,420.945s133.938,297.64,297.64,297.64
	s297.64-133.938,297.64-297.64S461.342,123.305,297.64,123.305z M468.783,484.938c-8.93,29.765-23.812,56.552-46.135,75.898
	c-20.835,19.347-47.622,32.74-75.898,38.693c-31.252,7.44-63.992,7.44-93.756-1.488c-23.812-5.953-47.623-17.858-66.97-34.229
	c-20.834-16.37-38.692-37.205-50.599-61.017c-17.858-37.205-23.811-78.874-16.37-119.056c2.977-16.371,8.93-31.252,16.37-46.134
	c20.835-43.158,59.528-75.898,104.174-90.78c40.182-13.394,84.828-13.394,123.521,1.488c22.323,7.441,41.67,20.834,59.528,37.205
	c-5.953,5.953-11.905,11.906-17.858,17.858c-11.905,11.906-22.323,22.323-34.229,34.229c-11.905-10.417-25.3-19.347-40.182-23.812
	c-17.858-5.953-35.717-5.953-53.575-1.488c-20.834,4.464-40.181,14.882-55.063,31.252c-11.905,11.906-20.834,26.788-26.787,43.158
	c-7.441,22.323-7.441,49.111,0,71.434c7.441,22.322,22.323,43.157,41.67,56.552c11.905,8.929,26.787,14.882,41.669,17.858
	c14.882,2.976,29.764,2.976,44.646,0c14.882-2.977,28.275-7.441,40.181-16.371c19.347-13.394,32.741-34.229,37.205-56.551
	c-34.229,0-66.969,0-101.197,0c0-23.812,0-47.623,0-71.434c58.04,0,116.079,0,174.119,0
	C479.2,419.457,477.712,452.197,468.783,484.938z"/>
</svg>
