<?xml version="1.0" encoding="utf-8"?>
<!-- Generator: Adobe Illustrator 15.1.0, SVG Export Plug-In . SVG Version: 6.00 Build 0)  -->
<!DOCTYPE svg PUBLIC "-//W3C//DTD SVG 1.1//EN" "http://www.w3.org/Graphics/SVG/1.1/DTD/svg11.dtd">
<svg version="1.1" id="Layer_1" xmlns="http://www.w3.org/2000/svg" xmlns:xlink="http://www.w3.org/1999/xlink" x="0px" y="0px"
	 width="595.279px" height="841.891px" viewBox="0 0 595.279 841.891" enable-background="new 0 0 595.279 841.891"
	 xml:space="preserve">
<g>
	<path fill="#CBCBCB" d="M297.64,123.305C133.938,123.305,0,257.243,0,420.945c0,122.032,72.922,226.206,178.584,272.341
		c-1.488-20.835,0-46.135,4.465-68.458c5.952-23.811,38.692-162.214,38.692-162.214s-8.929-19.346-8.929-47.622
		c0-44.646,25.3-77.386,58.04-77.386c26.787,0,40.181,20.834,40.181,44.646c0,26.788-17.858,68.457-26.787,105.662
		c-7.441,31.252,16.37,58.04,47.622,58.04c56.552,0,93.757-72.922,93.757-157.75c0-65.481-44.646-114.591-123.521-114.591
		c-90.78,0-145.844,66.969-145.844,142.867c0,25.3,7.441,44.646,19.347,58.04c5.953,5.952,5.953,8.929,4.465,16.37
		c-1.488,5.953-4.465,19.347-5.953,23.812c-1.488,7.44-7.44,10.417-14.882,7.44c-41.67-16.37-61.017-62.504-61.017-113.103
		c0-84.828,71.434-186.025,212.812-186.025c113.104,0,189.002,81.851,189.002,171.143c0,116.08-65.481,203.884-160.726,203.884
		c-32.74,0-62.505-17.858-72.922-37.205c0,0-17.858,68.457-20.835,81.852c-5.952,22.322-19.347,46.134-29.764,63.992
		c23.811,7.441,52.087,11.905,81.851,11.905c163.702,0,297.64-133.938,297.64-297.64S461.342,123.305,297.64,123.305z"/>
</g>
</svg>
