<?xml version="1.0" encoding="utf-8"?>
<!-- Generator: Adobe Illustrator 15.1.0, SVG Export Plug-In . SVG Version: 6.00 Build 0)  -->
<!DOCTYPE svg PUBLIC "-//W3C//DTD SVG 1.1//EN" "http://www.w3.org/Graphics/SVG/1.1/DTD/svg11.dtd">
<svg version="1.1" id="Layer_1" xmlns="http://www.w3.org/2000/svg" xmlns:xlink="http://www.w3.org/1999/xlink" x="0px" y="0px"
	 width="595.279px" height="841.891px" viewBox="0 0 595.279 841.891" enable-background="new 0 0 595.279 841.891"
	 xml:space="preserve">
<path fill="#CBCBCB" d="M297.64,123.305C133.938,123.305,0,257.243,0,420.945s133.938,297.64,297.64,297.64
	s297.64-133.938,297.64-297.64S461.342,123.305,297.64,123.305z M447.948,361.417c0,2.977,0,5.953,0,10.417
	c0,98.221-75.898,212.813-214.301,212.813c-41.67,0-81.852-11.906-114.592-34.229c5.953,0,11.905,1.487,17.858,1.487
	c35.717,0,66.969-11.905,93.757-32.74c-32.74,0-61.017-22.322-69.945-52.087c4.465,1.488,8.929,1.488,13.394,1.488
	c7.441,0,13.394-1.488,19.347-2.977c-34.229-7.44-59.528-37.205-59.528-72.921c0,0,0,0,0-1.488
	c10.418,5.953,22.323,8.929,34.229,8.929c-20.834-13.394-32.74-35.717-32.74-62.504c0-13.394,2.977-26.788,10.418-37.205
	c37.205,44.646,92.269,75.898,154.772,78.875c-2.977-5.953-2.977-11.906-2.977-17.858c0-41.669,34.229-74.41,74.41-74.41
	c20.835,0,41.67,8.929,55.063,23.812c16.37-2.977,32.74-8.929,47.622-17.858c-5.952,17.858-17.858,32.74-32.74,41.669
	c14.882-1.488,29.764-5.953,43.158-11.906C474.736,337.606,462.83,351,447.948,361.417z"/>
</svg>
